# xmcd
#
# Track frame offsets: 
#        150
#        33931
#        65016
#        106425
#        129809
#        160664
#        218663
#        246263
#
# Disc length: 3620 seconds
#
# Revision: 0
# Processed by: cddbd v1.5.2PL0 Copyright (c) Steve Scherf et al.
# Submitted via: ExactAudioCopy v0.95b4
#
DISCID=650e2208
DTITLE=Eric Clapton - 1988-09-07 - It's A Guitar Thing
DYEAR=1988
DGENRE=Blues
TTITLE0=Crossroads
TTITLE1=White Room
TTITLE2=I Shot The Sheriff
TTITLE3=Lay Down Sally
TTITLE4=Wonderful Tonight
TTITLE5=Tearing Us Apart and After Midnight
TTITLE6=Can't Find My Way Home
TTITLE7=Motherless Children
EXTD=
EXTT0=
EXTT1=
EXTT2=
EXTT3=
EXTT4=
EXTT5=
EXTT6=
EXTT7=
PLAYORDER=
